<mxfile host="app.diagrams.net" agent="Mozilla/5.0 (Windows NT 10.0; Win64; x64) AppleWebKit/537.36 (KHTML, like Gecko) Chrome/134.0.0.0 Safari/537.36" version="26.2.4">
  <diagram name="Страница — 1" id="QHZbj74J6QDl1c7W-W3z">
    <mxGraphModel dx="1293" dy="784" grid="1" gridSize="10" guides="1" tooltips="1" connect="1" arrows="1" fold="1" page="1" pageScale="1" pageWidth="827" pageHeight="1169" math="0" shadow="0">
      <root>
        <mxCell id="0" />
        <mxCell id="1" parent="0" />
        <mxCell id="XR0gAX9EhATQYCCiodpb-1" value="" style="shape=umlLifeline;perimeter=lifelinePerimeter;whiteSpace=wrap;html=1;container=1;dropTarget=0;collapsible=0;recursiveResize=0;outlineConnect=0;portConstraint=eastwest;newEdgeStyle={&quot;curved&quot;:0,&quot;rounded&quot;:0};participant=umlActor;" vertex="1" parent="1">
          <mxGeometry x="-190" y="180" width="20" height="300" as="geometry" />
        </mxCell>
        <mxCell id="XR0gAX9EhATQYCCiodpb-2" value="Менеджер" style="text;html=1;align=center;verticalAlign=middle;whiteSpace=wrap;rounded=0;" vertex="1" parent="1">
          <mxGeometry x="-210" y="140" width="60" height="30" as="geometry" />
        </mxCell>
        <mxCell id="XR0gAX9EhATQYCCiodpb-3" value="Участник&amp;nbsp; 1" style="text;html=1;align=center;verticalAlign=middle;whiteSpace=wrap;rounded=0;" vertex="1" parent="1">
          <mxGeometry x="100" y="140" width="70" height="30" as="geometry" />
        </mxCell>
        <mxCell id="XR0gAX9EhATQYCCiodpb-4" value="Участник 2" style="text;html=1;align=center;verticalAlign=middle;whiteSpace=wrap;rounded=0;" vertex="1" parent="1">
          <mxGeometry x="210" y="140" width="70" height="30" as="geometry" />
        </mxCell>
        <mxCell id="XR0gAX9EhATQYCCiodpb-5" value="" style="shape=umlLifeline;perimeter=lifelinePerimeter;whiteSpace=wrap;html=1;container=1;dropTarget=0;collapsible=0;recursiveResize=0;outlineConnect=0;portConstraint=eastwest;newEdgeStyle={&quot;curved&quot;:0,&quot;rounded&quot;:0};participant=umlActor;" vertex="1" parent="1">
          <mxGeometry x="120" y="180" width="20" height="300" as="geometry" />
        </mxCell>
        <mxCell id="XR0gAX9EhATQYCCiodpb-6" value="" style="shape=umlLifeline;perimeter=lifelinePerimeter;whiteSpace=wrap;html=1;container=1;dropTarget=0;collapsible=0;recursiveResize=0;outlineConnect=0;portConstraint=eastwest;newEdgeStyle={&quot;curved&quot;:0,&quot;rounded&quot;:0};participant=umlActor;" vertex="1" parent="1">
          <mxGeometry x="230" y="180" width="20" height="300" as="geometry" />
        </mxCell>
        <mxCell id="XR0gAX9EhATQYCCiodpb-7" value="" style="shape=umlLifeline;perimeter=lifelinePerimeter;whiteSpace=wrap;html=1;container=1;dropTarget=0;collapsible=0;recursiveResize=0;outlineConnect=0;portConstraint=eastwest;newEdgeStyle={&quot;curved&quot;:0,&quot;rounded&quot;:0};participant=umlActor;" vertex="1" parent="1">
          <mxGeometry x="-50" y="180" width="20" height="300" as="geometry" />
        </mxCell>
        <mxCell id="XR0gAX9EhATQYCCiodpb-8" value="Система" style="text;html=1;align=center;verticalAlign=middle;whiteSpace=wrap;rounded=0;" vertex="1" parent="1">
          <mxGeometry x="-70" y="140" width="60" height="30" as="geometry" />
        </mxCell>
        <mxCell id="XR0gAX9EhATQYCCiodpb-9" value="" style="endArrow=classic;html=1;rounded=0;exitX=0.5;exitY=0.333;exitDx=0;exitDy=0;exitPerimeter=0;" edge="1" parent="1" source="XR0gAX9EhATQYCCiodpb-1" target="XR0gAX9EhATQYCCiodpb-7">
          <mxGeometry width="50" height="50" relative="1" as="geometry">
            <mxPoint x="-160" y="330" as="sourcePoint" />
            <mxPoint x="-110" y="280" as="targetPoint" />
          </mxGeometry>
        </mxCell>
        <mxCell id="XR0gAX9EhATQYCCiodpb-11" value="Начать аукцион (партия)" style="text;html=1;align=center;verticalAlign=middle;whiteSpace=wrap;rounded=0;" vertex="1" parent="1">
          <mxGeometry x="-150" y="250" width="90" height="30" as="geometry" />
        </mxCell>
        <mxCell id="XR0gAX9EhATQYCCiodpb-12" value="" style="endArrow=classic;html=1;rounded=0;entryX=0.5;entryY=0.337;entryDx=0;entryDy=0;entryPerimeter=0;" edge="1" parent="1" source="XR0gAX9EhATQYCCiodpb-7" target="XR0gAX9EhATQYCCiodpb-5">
          <mxGeometry width="50" height="50" relative="1" as="geometry">
            <mxPoint x="40" y="330" as="sourcePoint" />
            <mxPoint x="90" y="280" as="targetPoint" />
          </mxGeometry>
        </mxCell>
        <mxCell id="XR0gAX9EhATQYCCiodpb-14" value="Уведомить()" style="text;html=1;align=center;verticalAlign=middle;whiteSpace=wrap;rounded=0;" vertex="1" parent="1">
          <mxGeometry x="20" y="250" width="80" height="30" as="geometry" />
        </mxCell>
        <mxCell id="XR0gAX9EhATQYCCiodpb-15" value="Уведомить()" style="text;html=1;align=center;verticalAlign=middle;whiteSpace=wrap;rounded=0;" vertex="1" parent="1">
          <mxGeometry x="20" y="290" width="80" height="30" as="geometry" />
        </mxCell>
        <mxCell id="XR0gAX9EhATQYCCiodpb-19" value="Сделать ставку (цена)" style="text;html=1;align=center;verticalAlign=middle;whiteSpace=wrap;rounded=0;" vertex="1" parent="1">
          <mxGeometry x="20" y="330" width="90" height="30" as="geometry" />
        </mxCell>
        <mxCell id="XR0gAX9EhATQYCCiodpb-20" value="Новая ставка (цена)" style="text;html=1;align=center;verticalAlign=middle;whiteSpace=wrap;rounded=0;" vertex="1" parent="1">
          <mxGeometry x="20" y="370" width="80" height="30" as="geometry" />
        </mxCell>
        <mxCell id="XR0gAX9EhATQYCCiodpb-21" value="" style="endArrow=classic;html=1;rounded=0;entryX=0.55;entryY=0.47;entryDx=0;entryDy=0;entryPerimeter=0;" edge="1" parent="1" source="XR0gAX9EhATQYCCiodpb-7" target="XR0gAX9EhATQYCCiodpb-6">
          <mxGeometry width="50" height="50" relative="1" as="geometry">
            <mxPoint x="-20" y="350" as="sourcePoint" />
            <mxPoint x="220" y="310" as="targetPoint" />
          </mxGeometry>
        </mxCell>
        <mxCell id="XR0gAX9EhATQYCCiodpb-22" value="" style="endArrow=classic;html=1;rounded=0;exitX=0.65;exitY=0.603;exitDx=0;exitDy=0;exitPerimeter=0;" edge="1" parent="1" source="XR0gAX9EhATQYCCiodpb-5" target="XR0gAX9EhATQYCCiodpb-7">
          <mxGeometry width="50" height="50" relative="1" as="geometry">
            <mxPoint x="40" y="490" as="sourcePoint" />
            <mxPoint x="-20" y="340" as="targetPoint" />
          </mxGeometry>
        </mxCell>
        <mxCell id="XR0gAX9EhATQYCCiodpb-23" value="" style="endArrow=classic;html=1;rounded=0;exitX=0.6;exitY=0.737;exitDx=0;exitDy=0;exitPerimeter=0;" edge="1" parent="1" source="XR0gAX9EhATQYCCiodpb-7" target="XR0gAX9EhATQYCCiodpb-6">
          <mxGeometry width="50" height="50" relative="1" as="geometry">
            <mxPoint x="40" y="330" as="sourcePoint" />
            <mxPoint x="90" y="280" as="targetPoint" />
          </mxGeometry>
        </mxCell>
        <mxCell id="XR0gAX9EhATQYCCiodpb-26" value="" style="html=1;labelBackgroundColor=#ffffff;startArrow=none;startFill=0;startSize=6;endArrow=classic;endFill=1;endSize=6;jettySize=auto;orthogonalLoop=1;strokeWidth=1;dashed=1;fontSize=14;rounded=0;exitX=0.45;exitY=0.883;exitDx=0;exitDy=0;exitPerimeter=0;" edge="1" parent="1" source="XR0gAX9EhATQYCCiodpb-7" target="XR0gAX9EhATQYCCiodpb-5">
          <mxGeometry width="60" height="60" relative="1" as="geometry">
            <mxPoint x="40" y="340" as="sourcePoint" />
            <mxPoint x="100" y="280" as="targetPoint" />
          </mxGeometry>
        </mxCell>
        <mxCell id="XR0gAX9EhATQYCCiodpb-27" value="Подтверждение" style="text;html=1;align=center;verticalAlign=middle;whiteSpace=wrap;rounded=0;" vertex="1" parent="1">
          <mxGeometry x="20" y="410" width="60" height="30" as="geometry" />
        </mxCell>
      </root>
    </mxGraphModel>
  </diagram>
</mxfile>
